<svg xmlns="http://www.w3.org/2000/svg" version="1.1" xmlns:xlink="http://www.w3.org/1999/xlink" xmlns:svgjs="http://svgjs.dev/svgjs" width="100%" height="100%" viewBox="0 0 1000 600"><rect width="1000" height="600" x="0" y="0" fill="#234e70"/><g><rect width="333.3333333333333" height="333.3333333333333" y="145.7009878681507" fill="#fbf8be" transform="matrix(1.0123199369277227,0,0,1.0123199369277227,0,-16.215995749298898)" x="123.47875213623047"/><path d="M256.6540106186366 387.3676592474119L256.6540106186366 387.3676592474119Q256.2094344532809 384.1667108568507 256.6540106186366 380.5508247119577L256.6540106186366 380.5508247119577Q267.32383858717355 379.483841915104 271.7992386517543 378.5057743513214Q276.27463871633506 377.55734519856264 277.3416215131888 374.3563968080015Q278.4086043100425 371.1554484174404 278.4086043100425 363.4790999622986L278.4086043100425 363.4790999622986L278.4086043100425 246.97050622808013L263.0559073997588 246.97050622808013Q251.73403438870017 246.97050622808013 245.21358396348316 250.05290097454633Q238.72277194928984 253.13529572101254 234.78086328313594 259.32972362496866Q230.80931620595828 265.5241515289249 226.98596118389924 275.1269967006081L226.98596118389924 275.1269967006081Q223.57754391617215 275.54193445494013 220.13948823742138 275.1269967006081L220.13948823742138 275.1269967006081Q221.44357832246476 264.87210648640314 222.59947635238962 255.50636860290965Q223.78501279333815 246.11099230839238 224.64452671302587 237.36766105639688L224.64452671302587 237.36766105639688Q238.51530307212386 238.19753656506086 255.34992053359323 238.3160902091557Q272.2141764060863 238.43464385325058 290.3528839525991 238.43464385325058L290.3528839525991 238.43464385325058Q308.6990603762779 238.43464385325058 325.6818698928658 238.3160902091557Q342.63504099843004 238.19753656506086 356.29834848036205 237.36766105639688L356.29834848036205 237.36766105639688Q357.1578624000498 245.9035234312264 358.0173763197374 255.38781495881477Q358.84725182840145 264.87210648640314 360.15134191344487 275.1269967006081L360.15134191344487 275.1269967006081Q356.50581735752803 275.54193445494013 353.097400089801 275.1269967006081L353.097400089801 275.1269967006081Q349.0369377795522 265.31668265175887 344.9764754693034 259.1222547478027Q340.9456515700783 252.92782684384656 334.63267002202736 249.9343473304515Q328.34932688500004 246.97050622808013 317.0274538739414 246.97050622808013L317.0274538739414 246.97050622808013L301.8822258408237 246.97050622808013L301.8822258408237 360.6930893260695Q301.8822258408237 367.3024549843577 302.2971635951557 371.1554484174404Q302.74173976051145 375.00844185052324 304.75715171012394 376.6978312788749Q306.8022020707602 378.4168591182503 311.27760213534094 379.15781939384317Q315.7530021999217 379.89877966943595 323.6368195322296 380.5508247119577L323.6368195322296 380.5508247119577Q324.28886457475124 383.95924197968475 323.6368195322296 387.3676592474119L323.6368195322296 387.3676592474119Q319.1614194676488 387.3676592474119 312.8780763306215 387.27874401434065Q306.5650947825705 387.1601903702458 300.400305289638 387.04163672615095Q294.2058773856819 386.9527214930798 289.9379461982671 386.9527214930798L289.9379461982671 386.9527214930798Q285.87748388801833 386.9527214930798 279.80160962815705 387.04163672615095Q273.7257353682957 387.1601903702458 267.4127538202447 387.27874401434065Q261.12941068321743 387.3676592474119 256.6540106186366 387.3676592474119Z " fill="#234e70" transform="matrix(1.0123199369277227,0,0,1.0123199369277227,0,-16.215995749298898)"/><path d="M540.3001193281839 349.64076384216844L540.3001193281839 349.64076384216844Q539.9907133927836 347.4130411072865 540.3001193281839 344.8965394993644L540.3001193281839 344.8965394993644Q547.2720664058697 344.1539652544037 550.2423633857123 343.4732721965231Q553.2126603655549 342.8132062010026 553.9552346105155 340.5029752166806Q554.6978088554761 338.2133712947186 554.6978088554761 333.0153515799942L554.6978088554761 333.0153515799942L554.6978088554761 263.95594679865525Q554.6978088554761 257.7059469035699 553.9552346105155 255.04505585912761Q553.2126603655549 252.36353775232533 550.1598551362722 251.55908232028466Q547.1276769693497 250.73399982588393 540.3001193281839 250.13581501744343L540.3001193281839 250.13581501744343Q539.9907133927836 247.90809228256154 540.3001193281839 245.3915906746394L540.3001193281839 245.3915906746394Q544.1573799895071 245.3915906746394 547.0451687199096 245.45347186171944Q549.953584512672 245.53598011115952 552.9238814925146 245.53598011115952Q555.8941784723572 245.53598011115952 560.0402180067207 245.6184883605996Q564.2068846034442 245.68036954767965 570.5806468726896 245.68036954767965L570.5806468726896 245.68036954767965Q582.3174453555397 245.68036954767965 592.5690953484684 245.6184883605996Q602.8207453413972 245.53598011115952 609.6483029825631 245.45347186171944Q616.4758606237289 245.3915906746394 617.6722302406099 245.3915906746394L617.6722302406099 245.3915906746394Q618.2704150490504 250.87838926240408 619.0748704810911 256.674593785569Q619.8999529754918 262.47079830873395 620.9313060934927 269.00957707685956L620.9313060934927 269.00957707685956Q618.4148044855706 269.2983559498998 616.0426923141686 269.00957707685956L616.0426923141686 269.00957707685956Q614.2481378888469 264.55413160709577 611.8760257174449 261.1300392553328Q609.5039135460429 257.7059469035699 606.9667848757608 255.9320195406084L606.9667848757608 255.9320195406084Q604.1615043947984 253.84868624224663 600.221735484035 252.81733312424575Q596.2819665732716 251.7653529438848 590.4857620501067 251.7653529438848L590.4857620501067 251.7653529438848L571.0344422446101 251.7653529438848L571.0344422446101 292.31815754367943L579.2027589391771 292.31815754367943Q586.3397225157431 292.31815754367943 590.0525937405463 291.34868561275863Q593.7654649653496 290.37921368183777 595.539392328311 287.03762957951494Q597.3133196912725 283.6960454771921 598.3652998716334 276.4353195264659L598.3652998716334 276.4353195264659Q601.0261909160756 275.9815241545455 603.4189301498377 276.4353195264659L603.4189301498377 276.4353195264659Q603.2539136509577 285.3462104659935 603.1920324638775 289.49225000035705Q603.1095242144374 293.6589165970806 603.1095242144374 295.74224989544234L603.1095242144374 295.74224989544234Q603.1095242144374 298.1143620668444 603.1920324638775 302.94109465908855Q603.2539136509577 307.7678272513326 603.4189301498377 315.33795913745917L603.4189301498377 315.33795913745917Q601.1912074149559 315.79175450937953 598.3652998716334 315.33795913745917L598.3652998716334 315.33795913745917Q597.4783361901527 307.45842131593236 595.6837817648311 304.05495602652945Q593.9098544018696 300.63086367476654 590.4238808630266 299.74389999328577Q586.9172802618236 298.85693631180504 580.5435179925782 298.85693631180504L580.5435179925782 298.85693631180504L571.0344422446101 298.85693631180504L571.0344422446101 331.0764077181526Q571.0344422446101 336.1300379963568 571.1169504940501 339.18284322563943Q571.1788316811302 342.2150213925621 571.3232211176503 343.1019850740428L571.3232211176503 343.1019850740428L591.6821316669877 343.1019850740428Q599.1078741165941 343.1019850740428 603.6252007734379 341.84373427008177Q608.1631544926418 340.58548346612065 611.1334514724842 338.0689818581985L611.1334514724842 338.0689818581985Q613.2167847708461 336.4188168693971 616.0426923141686 332.3346585221136Q618.8479727951309 328.2505001748301 621.3851014654131 322.9080910235856L621.3851014654131 322.9080910235856Q623.7572136368151 322.6193121505453 625.984936371697 322.9080910235856L625.984936371697 322.9080910235856Q624.4997878817758 331.2207971546727 623.4684347637749 337.90396535931836Q622.416454583414 344.58713356396413 621.6738803384533 349.4963744056482L621.6738803384533 349.4963744056482Q614.9907121338076 349.4963744056482 607.1318013746409 349.4963744056482Q599.2522635531142 349.4963744056482 591.3727257315875 349.4138661562082Q583.5138149724207 349.3519849691281 577.0575444537352 349.3519849691281Q570.5806468726896 349.3519849691281 566.7233862113665 349.3519849691281L566.7233862113665 349.3519849691281Q559.7514391336804 349.3519849691281 555.3578748509967 349.4138661562082Q550.9849376306729 349.4963744056482 547.6433535283502 349.57888265508836Q544.3017694260272 349.64076384216844 540.3001193281839 349.64076384216844ZM642.1771803243108 387.36766089864057L642.1771803243108 387.36766089864057Q638.1549031641074 387.36766089864057 636.0096886786656 385.0574299143186Q633.8644741932237 382.76782599235673 633.8644741932237 379.65313957599403L633.8644741932237 379.65313957599403Q633.8644741932237 375.4864729792705 638.3199196629876 371.5467040685071Q642.7753651327513 367.6069351577437 652.8619986268 367.6069351577437L652.8619986268 367.6069351577437Q654.8009424886416 364.2034698683408 656.6573781010432 360.2637009575775Q658.5138137134447 356.3239320468141 661.0303153213669 350.5277275236492L661.0303153213669 350.5277275236492Q659.4007773949255 346.38168798928564 656.8842757870034 339.8429092211601Q654.3471471167212 333.3041304530344 651.1499524509185 325.36271144442765Q647.9733848474758 317.4212924358209 644.693681932233 308.8816886187736Q641.4346060793501 300.3420848017263 638.3199196629876 292.31815754367943L638.3199196629876 292.31815754367943Q636.525365237666 287.5739332008754 634.3801507522242 285.7793787755539Q632.2143092044223 284.0054514125924 626.1293258082171 283.40726660415186L626.1293258082171 283.40726660415186Q625.6961574986567 281.3239333057901 626.1293258082171 278.8074316978679L626.1293258082171 278.8074316978679Q630.4403818414607 278.8074316978679 634.8958273112246 278.951821134388Q639.3512727809884 279.09621057090817 644.0954971237925 279.09621057090817L644.0954971237925 279.09621057090817Q648.4065531570361 279.09621057090817 653.4601834352404 278.951821134388Q658.5138137134447 278.8074316978679 662.0822955017278 278.8074316978679L662.0822955017278 278.8074316978679Q662.371074374768 281.03515443274983 662.0822955017278 283.40726660415186L662.0822955017278 283.40726660415186Q657.0286652235235 283.6960454771921 655.0278401746018 284.43861972215274Q653.0063880633201 285.18119396711336 653.0063880633201 287.4089167019953L653.0063880633201 287.4089167019953Q653.0063880633201 289.49225000035705 654.4915365532413 293.80330603360073L654.4915365532413 293.80330603360073Q658.3694242769246 304.3437348995697 661.9997872522878 313.25462583909734Q665.6301502276508 322.1655167786249 669.343021452454 331.530203090073L669.343021452454 331.530203090073Q674.1078728576181 320.6803682887037 677.7382358329812 312.07888328457636Q681.3892258707043 303.456771218089 685.1020970955075 294.09208490664093L685.1020970955075 294.09208490664093Q686.7316350219488 289.8016559357573 686.7316350219488 287.71832263739554L686.7316350219488 287.71832263739554Q686.7316350219488 285.6349893390337 684.503912287067 284.748025657553Q682.2761895521851 283.8610619760722 676.6243744655402 283.40726660415186L676.6243744655402 283.40726660415186Q676.1912061559799 281.03515443274983 676.6243744655402 278.8074316978679L676.6243744655402 278.8074316978679Q680.3372456903434 278.8074316978679 684.2770146011068 278.951821134388Q688.2167835118702 279.09621057090817 692.6722289816339 279.09621057090817L692.6722289816339 279.09621057090817Q695.6425259614765 279.09621057090817 699.1284995003194 278.951821134388Q702.6144730391624 278.8074316978679 705.4403805824849 278.8074316978679L705.4403805824849 278.8074316978679Q705.8941759544052 281.03515443274983 705.4403805824849 283.40726660415186L705.4403805824849 283.40726660415186Q699.2110077497595 283.8610619760722 696.9832850148777 286.15066589803416Q694.7555622799957 288.46089688235617 692.816618418154 293.06073178864006L692.816618418154 293.06073178864006L667.4247046529724 352.3222819489707Q666.6821304080117 354.09620931193217 664.7431865461701 358.3247570957358Q662.8248697466885 362.57393194189945 660.6590281988866 367.09125859874325Q658.5138137134447 371.6292123179471 657.0286652235235 374.5995092977897L657.0286652235235 374.5995092977897Q653.3157939987203 381.88086231087595 649.7473122104373 384.6242616047583Q646.1788304221542 387.36766089864057 642.1771803243108 387.36766089864057ZM741.0839443405953 351.2703017686098L741.0839443405953 351.2703017686098Q730.234109539226 351.2703017686098 722.1483010940991 346.60858567524576Q714.0624926489722 341.9262425195218 709.6070471792084 333.67541757551476Q705.1516017094445 325.4452196938678 705.1516017094445 314.7397743290186L705.1516017094445 314.7397743290186Q705.1516017094445 303.16799234504873 709.8133178028086 294.54588027856136Q714.4956609585325 285.923768212074 722.9733835884998 281.17954386926993Q731.430479156107 276.4353195264659 742.4247033939964 276.4353195264659L742.4247033939964 276.4353195264659Q753.2539111330057 276.4353195264659 761.2778383910526 281.17954386926993Q769.3017656490994 285.923768212074 773.7572111188632 294.2571014055211Q778.212656588627 302.5698075366082 778.212656588627 313.11023640257724L778.212656588627 313.11023640257724Q778.212656588627 323.9600712039464 773.530313432903 332.6440644575139Q768.847970277179 341.3280577110813 760.5352641460919 346.2991797398455Q752.2225580150048 351.2703017686098 741.0839443405953 351.2703017686098ZM721.9214034081389 312.96584696605714L721.9214034081389 312.96584696605714Q721.9214034081389 328.10611073831 726.8925254369032 336.9551204907576Q731.8842745280275 345.78350318084506 741.8265185855558 345.78350318084506L741.8265185855558 345.78350318084506Q751.335594333524 345.78350318084506 756.3892246117283 337.3882888003179Q761.4222278275727 328.9930744197908 761.4222278275727 314.8841637655387L761.4222278275727 314.8841637655387Q761.4222278275727 299.8882894298059 756.3892246117283 290.9773984902783Q751.335594333524 282.0665075507507 741.6821291490359 282.0665075507507L741.6821291490359 282.0665075507507Q732.1730534010677 282.0665075507507 727.0575419357833 290.23482424531767Q721.9214034081389 298.4031409398846 721.9214034081389 312.96584696605714ZM826.3355930745481 351.2703017686098L826.3355930745481 351.2703017686098Q820.6837779879032 351.2703017686098 815.1969794001385 349.78515327868854Q809.6895537500138 348.3000047887673 804.2027551622492 345.49472430780486L804.2027551622492 345.49472430780486Q803.1714020442483 346.81485629884594 802.1194218638874 348.011225915727Q801.0880687458865 349.207595532608 800.2011050644057 350.5277275236492L800.2011050644057 350.5277275236492Q799.1491248840449 350.383338087129 798.179652953124 350.2389486506089Q797.2308080845631 350.0945592140888 796.4882338396026 349.9501697775687L796.4882338396026 349.9501697775687Q796.7770127126429 347.2686516707664 796.7770127126429 342.8957144504426Q796.7770127126429 338.50215016775894 796.7770127126429 332.56155620807385L796.7770127126429 332.56155620807385L796.7770127126429 259.64489076541156Q796.7770127126429 255.04505585912761 795.8900490311621 252.73482487480567Q795.0030853496813 250.4452209528437 792.4040754923191 249.47574902192287Q789.8050656349569 248.50627709100206 784.6070459202325 248.05248171908167L784.6070459202325 248.05248171908167Q784.153250548312 246.13416491960004 784.6070459202325 244.05083162123825L784.6070459202325 244.05083162123825Q790.5476398799175 243.30825737627762 796.7770127126429 241.74060063691627Q803.0063855453682 240.19357095991495 809.5451643134937 237.36766341659253L809.5451643134937 237.36766341659253L812.0822929837758 238.25462709807329Q811.9172764848958 241.5343300133161 811.8553952978158 245.68036954767965Q811.7728870483757 249.8470361444032 811.7728870483757 254.73564992372738L811.7728870483757 254.73564992372738L811.7728870483757 286.3775635839944Q817.8578704445807 280.8907649962297 823.5921937806658 278.66304226134775Q829.3058900543906 276.4353195264659 834.7926886421553 276.4353195264659L834.7926886421553 276.4353195264659Q844.1573749536033 276.4353195264659 850.7580349088089 281.4064415552301Q857.3793219263746 286.3775635839944 860.8652954652175 294.3189825926012Q864.3512690040606 302.26040160120795 864.3512690040606 311.3363090396157L864.3512690040606 311.3363090396157Q864.3512690040606 321.8767379055847 859.5245364118164 331.01452653107253Q854.6978038195723 340.1316880942003 846.158200002525 345.70099493140503Q837.6185961854777 351.2703017686098 826.3355930745481 351.2703017686098ZM811.6284976118556 292.91634235211995L811.6284976118556 292.91634235211995L811.6284976118556 337.75957592279826Q818.4560552530213 345.49472430780486 828.1095204375096 345.49472430780486L828.1095204375096 345.49472430780486Q835.6796523236361 345.49472430780486 840.30011429228 341.3280577110813Q844.899949198564 337.1613911143577 846.9007742474856 330.47822290971203Q848.9015992964074 323.7950547050664 848.9015992964074 316.36931225546004L848.9015992964074 316.36931225546004Q848.9015992964074 309.10858630473376 846.9007742474856 302.05413097760777Q844.899949198564 294.9996756504817 840.36199547936 290.31733249475775Q835.8446688225162 285.6349893390337 827.9651310009895 285.6349893390337L827.9651310009895 285.6349893390337Q823.6540749677457 285.6349893390337 819.5080354333822 287.4089167019953Q815.3413688366587 289.2034711273168 811.6284976118556 292.91634235211995Z " fill="#fbf8be" transform="matrix(1.0123199369277227,0,0,1.0123199369277227,0,-16.215995749298898)"/></g></svg>